<svg width="64" height="64" fill="none" xmlns="http://www.w3.org/2000/svg"><rect width="64" height="64" rx="20" fill="#C0D0ED"/><rect x="15.041" y="34.653" width="33.916" height="19.923" rx="6" fill="#FFFBF4" stroke="#3B66BC" stroke-width="3"/><rect x="11.918" y="23.269" width="40.163" height="19.291" rx="6" fill="#FFFBF4" stroke="#3B66BC" stroke-width="3"/><rect x="26.148" y="34.653" width="11.701" height="12.966" rx="2" fill="#C0D0ED" stroke="#3B66BC" stroke-width="3"/><path d="M33.32 41.744a2.516 2.516 0 1 0-2.642 0v2.825c0 .34.276.617.617.617h1.407a.618.618 0 0 0 .618-.617v-2.825Z" fill="#3B66BC"/><path d="M42.469 23.268v-5.924c0-5.782-4.687-10.469-10.47-10.469v0c-5.78 0-10.468 4.687-10.468 10.469v5.924" stroke="#3B66BC" stroke-width="3" stroke-miterlimit="10" stroke-linecap="round" stroke-linejoin="round"/><path d="m48.071 13.246 2.39-3.676m.692 8.653 3.237-1.235" stroke="#82A2DD" stroke-width="3" stroke-linecap="round"/></svg>