<svg width="64" height="64" fill="none" xmlns="http://www.w3.org/2000/svg"><rect width="64" height="64" rx="20" fill="#A3A5AE"/><path d="M9.463 22.096a8 8 0 0 1 8-8h29.24a8 8 0 0 1 8 8v19.807a8 8 0 0 1-8 8h-29.24a8 8 0 0 1-8-8V22.096Z" fill="#484E5B" stroke="#010115" stroke-width="3" stroke-linejoin="round"/><path d="M9.463 22.096a8 8 0 0 1 8-8h29.24a8 8 0 0 1 8 8v2.73H9.463v-2.73Z" fill="#484E5B" stroke="#010115" stroke-width="3" stroke-linejoin="round"/><circle cx="17.533" cy="19.617" r="2" fill="#66C6D3"/><circle cx="23.533" cy="19.617" r="2" fill="#E4A0C8"/><path d="m17.612 41.708 5.703-4.666a1.334 1.334 0 0 0 .001-2.063l-5.69-4.665M29.24 41.475h7.128" stroke="#FFFBF4" stroke-width="3" stroke-linecap="round"/></svg>