<svg width="64" height="64" fill="none" xmlns="http://www.w3.org/2000/svg"><rect width="64" height="64" rx="20" fill="#B7E3E5"/><circle cx="34" cy="31.75" r="21.26" fill="#FFFBF4" stroke="#1C82A0" stroke-width="3"/><mask id="a" style="mask-type:alpha" maskUnits="userSpaceOnUse" x="14" y="11" width="40" height="41"><circle cx="34" cy="31.75" r="19.76" fill="#FFF6EB"/></mask><g mask="url(#a)" fill="#66C6D3"><path d="m25.671 13.15.01.011.035.04.133.154c.117.135.29.338.516.608.452.541 1.117 1.354 1.976 2.45.695.886 1.27 1.724 1.664 2.503.387.765.647 1.57.585 2.358-.067.851-.498 1.55-1.213 2.056-.673.477-1.584.78-2.672.975-1.711.305-2.63 1.283-2.995 2.2-.188.473-.225.917-.166 1.253.059.339.314.753.557.926 1.188.843 2.51.753 3.809.921.369.048.739.096 1.115.162.826.145 1.713.397 2.467 1.081.754.684 1.254 1.684 1.572 3.076.65 2.844-.005 5.761-1.229 8.031-1.198 2.224-3.086 4.07-5.127 4.442-.517.094-1.048.088-1.53-.128-.506-.228-.82-.627-1.002-1.047-.171-.397-.235-.832-.26-1.225-.025-.401-.013-.831.005-1.244l.026-.519c.035-.672.068-1.307.022-1.909-.058-.752-.23-1.244-.511-1.545-.386-.413-.891-.714-1.529-1.04-.1-.052-.207-.105-.317-.16-.535-.268-1.164-.583-1.701-.988-.695-.524-1.3-1.235-1.601-2.294-.293-1.027-.275-2.287.074-3.877.233-1.06.168-1.84-.025-2.41a2.731 2.731 0 0 0-.964-1.323c-.902-.685-2.193-.926-3.133-.905l-1.707.039 4.593-8.636 7.975-4.652.544.612.004.004ZM54.84 26.833l-.745.414c-.435.241-.902.294-1.317.277a5.908 5.908 0 0 1-1.25-.217c-.408-.11-.85-.252-1.29-.395l-.009-.003a37.858 37.858 0 0 0-1.401-.433c-.988-.279-1.647-.229-2.133-.08-.51.156-.924.446-1.422.831-.044.035-.09.072-.139.109-.437.342-.998.78-1.666 1.03-.817.303-1.725.313-2.802-.09-1.025-.385-1.817-.953-2.367-1.693-.549-.738-.81-1.584-.877-2.448-.131-1.686.465-3.534 1.21-5.16.82-1.788 1.974-2.97 3.074-3.702 1.058-.703 2.15-1.038 2.878-.998l.122.007 6.296 1.938 3.837 10.613Zm-.86 11.304-.04.179c-.248 1.113-.985 2.499-1.888 3.87a36.51 36.51 0 0 1-3.278 4.209c-1.191 1.322-2.445 2.523-3.557 3.336-.552.403-1.111.742-1.64.941-.494.185-1.184.332-1.819-.005-.433-.229-.813-.549-1.04-1-.232-.46-.243-.933-.164-1.347.143-.744.633-1.521 1.05-2.17l.145-.226c.895-1.39 1.78-2.766 1.78-4.302 0-.926-.094-1.838-.194-2.722l-.03-.26c-.088-.773-.177-1.554-.179-2.234-.002-.736.09-1.582.59-2.247.55-.732 1.402-1.012 2.376-1.012 1.607 0 3.461.748 4.888 1.606.728.438 1.395.935 1.907 1.437.466.456.97 1.074 1.068 1.766l.026.181Z"/></g><path d="M15.906 55.24c-6.207-3.387-9.281-8.357-9.281-14.984v-1.66c0-.595.397-1.117.965-1.297 4.595-1.457 7.293-3.251 8.674-4.398.657-.545 1.738-.556 2.394-.01 1.445 1.205 4.243 3.108 8.674 4.422.584.173.998.703.998 1.311v1.632c0 6.635-3.157 11.611-9.533 15-1.087.578-1.832.562-2.891-.016Z" fill="#FFFBF4" stroke="#1C82A0" stroke-width="3" stroke-linejoin="round"/><path d="m12.82 44.497 3.125 2.843 6.188-5.625" stroke="#66C6D3" stroke-width="3" stroke-linecap="round" stroke-linejoin="round"/></svg>