<svg width="64" height="64" fill="none" xmlns="http://www.w3.org/2000/svg"><rect width="64" height="64" rx="20" fill="#FBE6B2"/><path d="m16.158 25.854 11.476-10.322a6 6 0 0 1 7.913-.099L47.65 25.786a6 6 0 0 1 2.07 5.168L48.114 46.7a6 6 0 0 1-5.969 5.392H21.38a6 6 0 0 1-5.982-5.542l-1.209-15.778a6 6 0 0 1 1.97-4.92Z" fill="#FFFBF4" stroke="#E38C00" stroke-width="3" stroke-linecap="round" stroke-linejoin="round"/><path d="m8.514 32.5 18.983-17.074a6 6 0 0 1 7.913-.099l20.077 17.174" stroke="#E38C00" stroke-width="3" stroke-linecap="round" stroke-linejoin="round"/><path fill-rule="evenodd" clip-rule="evenodd" d="M35.387 42.28a6.02 6.02 0 1 0-6.723.034v9.78h6.723V42.28Z" fill="#E38C00"/><path d="M14.777 8.878v6.056m-3.027-3.028h6.056m34.243 3.385v5.248m-2.625-2.624h5.248" stroke="#EFB443" stroke-width="3" stroke-linecap="round"/></svg>